<svg width="119" height="119" viewBox="0 0 119 119" fill="none" xmlns="http://www.w3.org/2000/svg">
<path d="M39.5814 34.5C48.4341 19.1666 70.5659 19.1667 79.4186 34.5L91.1099 54.75C99.9627 70.0834 88.8967 89.25 71.1913 89.25H47.8086C30.1032 89.25 19.0374 70.0833 27.8901 54.75L39.5814 34.5Z" fill="#1468FE"/>
<path d="M85.9808 72C86.7506 73.3333 85.7884 75 84.2488 75L35.7514 75C34.2118 75 33.2495 73.3333 34.0193 72L58.268 30C59.0378 28.6666 60.9623 28.6667 61.7321 30L85.9808 72Z" fill="white"/>
<path d="M88.4607 64.8327C89.5493 65.9214 89.0512 67.7803 87.5641 68.1788L40.7192 80.7309C39.2321 81.1293 37.8712 79.7685 38.2697 78.2814L50.8218 31.4364C51.2202 29.9493 53.0792 29.4512 54.1678 30.5399L88.4607 64.8327Z" fill="#1468FE"/>
<circle cx="60" cy="59" r="10" fill="white"/>
</svg>
