<svg width="24" height="29" viewBox="0 0 24 29" fill="none" xmlns="http://www.w3.org/2000/svg">
<path d="M22.4348 0H4.69565C3.45029 0 2.25593 0.509225 1.37532 1.41565C0.494719 2.32208 0 3.55145 0 4.83333V27.3889C0 27.8162 0.164906 28.226 0.458441 28.5281C0.751977 28.8303 1.1501 29 1.56522 29H20.3478C20.7629 29 21.1611 28.8303 21.4546 28.5281C21.7481 28.226 21.913 27.8162 21.913 27.3889C21.913 26.9616 21.7481 26.5518 21.4546 26.2497C21.1611 25.9475 20.7629 25.7778 20.3478 25.7778H3.13043V25.2407C3.13043 24.8134 3.29534 24.4037 3.58888 24.1015C3.88241 23.7994 4.28053 23.6296 4.69565 23.6296H22.4348C22.8499 23.6296 23.248 23.4599 23.5416 23.1577C23.8351 22.8556 24 22.4458 24 22.0185V1.61111C24 1.18382 23.8351 0.774025 23.5416 0.471884C23.248 0.169742 22.8499 0 22.4348 0ZM20.8696 20.4074H4.69565C4.16235 20.4064 3.63287 20.4999 3.13043 20.684V4.83333C3.13043 4.40604 3.29534 3.99625 3.58888 3.69411C3.88241 3.39196 4.28053 3.22222 4.69565 3.22222H20.8696V20.4074Z" fill="#8F92B5"/>
</svg>
